<svg xmlns="http://www.w3.org/2000/svg" xmlns:xlink="http://www.w3.org/1999/xlink" width="1920" zoomAndPan="magnify" viewBox="0 0 1440 809.999993" height="1080" preserveAspectRatio="xMidYMid meet" version="1.0"><defs><clipPath id="39c00f7eae"><path d="M 544 0 L 1440 0 L 1440 810 L 544 810 Z M 544 0 " clip-rule="nonzero"/></clipPath><clipPath id="664194c7ee"><path d="M 983.761719 -574.476562 L 1775.898438 52.523438 L 1069.765625 944.628906 L 277.632812 317.628906 Z M 983.761719 -574.476562 " clip-rule="nonzero"/></clipPath><clipPath id="e1f4070d79"><path d="M 983.761719 -574.476562 L 1775.898438 52.523438 L 1069.765625 944.628906 L 277.632812 317.628906 Z M 983.761719 -574.476562 " clip-rule="nonzero"/></clipPath><clipPath id="d40c3897f6"><path d="M 0 164.691406 L 153.945312 164.691406 L 153.945312 810 L 0 810 Z M 0 164.691406 " clip-rule="nonzero"/></clipPath></defs><g clip-path="url(#39c00f7eae)"><g clip-path="url(#664194c7ee)"><g clip-path="url(#e1f4070d79)"><path fill="#faf9ff" d="M 870.773438 785.058594 C 853.90625 774.023438 840.929688 759.371094 830.308594 742.40625 C 816.410156 720.214844 808.199219 696.199219 806.339844 670.054688 C 805.371094 656.472656 806.210938 642.910156 808.371094 629.53125 C 812.433594 604.328125 820.324219 580.007812 826.207031 555.226562 C 832.269531 529.691406 835.9375 503.773438 828.753906 477.8125 C 823.109375 457.421875 811.5 441.828125 791.84375 432.097656 C 772.554688 422.546875 751.976562 416.769531 732.023438 409.167969 C 717.691406 403.707031 703.027344 399.242188 688.867188 393.140625 C 677.808594 388.363281 666.390625 384.246094 655.5 379.011719 C 630.636719 367.0625 608.582031 351.132812 588.90625 331.773438 C 576.953125 320.007812 567.78125 306.660156 560.171875 291.597656 C 549.738281 270.9375 544.550781 249.5 544.371094 226.574219 C 544.199219 204.492188 548.921875 183.308594 558.039062 163.453125 C 564.140625 150.15625 571.917969 137.472656 580.203125 125.382812 C 591.21875 109.300781 604.148438 94.714844 614.394531 77.878906 C 627.804688 55.855469 638.617188 33.28125 643.25 7.832031 C 647.136719 -13.523438 647.007812 -35.226562 649.425781 -56.679688 C 652.554688 -84.433594 656.609375 -112.039062 666.550781 -138.453125 C 675.683594 -162.71875 685.648438 -186.628906 698.863281 -208.90625 C 703.878906 -217.359375 709.949219 -225.46875 715.386719 -233.726562 C 722.171875 -244.03125 731.804688 -251.320312 739.523438 -260.527344 C 745.179688 -267.28125 753.363281 -271.996094 760.679688 -277.261719 C 782.914062 -293.261719 807.1875 -304.992188 834.417969 -309.035156 C 848.988281 -311.203125 863.789062 -310.425781 878.339844 -306.816406 C 893.859375 -302.960938 909.046875 -298.121094 923.382812 -291.160156 C 930.78125 -287.570312 938.070312 -283.554688 945.273438 -279.460938 C 960.023438 -271.082031 974.652344 -262.417969 990.859375 -256.582031 C 1005.960938 -251.136719 1021.027344 -246.671875 1037.125 -246.640625 C 1046.871094 -246.625 1056.40625 -248.078125 1065.75 -251.230469 C 1088.496094 -258.898438 1109.472656 -270.699219 1131.667969 -279.46875 C 1159.445312 -290.453125 1187.242188 -301.644531 1217.011719 -307.085938 C 1240.003906 -311.289062 1262.820312 -310.089844 1284.878906 -304.875 C 1307.320312 -299.570312 1328.480469 -290.121094 1348.996094 -278.539062 C 1379.25 -261.457031 1400.351562 -236.511719 1417.519531 -207.746094 C 1428.71875 -188.988281 1435.988281 -168.304688 1440.585938 -146.664062 C 1443.820312 -131.445312 1446.542969 -116.195312 1447.554688 -100.753906 C 1448.558594 -85.5 1449.996094 -70.386719 1452.957031 -55.375 C 1457.945312 -30.097656 1469.589844 -8.976562 1488.675781 8.714844 C 1506.710938 25.429688 1527.625 38.691406 1544.617188 56.484375 C 1557.210938 69.675781 1568.886719 83.417969 1577.929688 99.710938 C 1588.394531 118.554688 1595.539062 137.835938 1597.570312 159.273438 C 1599.023438 174.585938 1598.023438 189.953125 1594.957031 204.609375 C 1590.566406 225.59375 1581.625 245.117188 1570.296875 263.699219 C 1562.4375 276.597656 1552.210938 286.976562 1541.40625 296.828125 C 1531.496094 305.863281 1519.964844 313.125 1508.175781 319.625 C 1481.796875 334.171875 1454.902344 347.8125 1428.863281 362.929688 C 1412.488281 372.433594 1397.503906 384.082031 1385.527344 399.292969 C 1370.835938 417.957031 1363.761719 439.433594 1359.480469 462.367188 C 1354.957031 486.578125 1349.886719 510.640625 1343.699219 534.558594 C 1336.515625 562.332031 1326.183594 588.796875 1314.796875 614.824219 C 1306.675781 633.402344 1295.609375 650.652344 1284.964844 668.042969 C 1277.214844 680.695312 1268.476562 692.457031 1259.652344 704.285156 C 1249.890625 717.367188 1237.234375 727.515625 1226.042969 739.144531 C 1213 752.695312 1197.816406 763.691406 1182.335938 774.144531 C 1162.925781 787.246094 1142.667969 798.828125 1121.128906 808.375 C 1106.027344 815.070312 1090.492188 819.691406 1074.648438 823.746094 C 1054.476562 828.90625 1033.886719 830.683594 1013.15625 830.734375 C 992.023438 830.789062 970.980469 829.15625 950.441406 823.914062 C 933.242188 819.53125 916.667969 813.628906 900.570312 805.757812 C 889.332031 800.261719 880.65625 791.941406 870.773438 785.058594 " fill-opacity="1" fill-rule="nonzero"/></g></g></g><g clip-path="url(#d40c3897f6)"><path fill="#faf9ff" d="M -260.136719 224.570312 C -234.222656 224.789062 -210.753906 229 -187.636719 235.992188 C -173.792969 240.179688 -159.605469 243.625 -145.136719 244.433594 C -131.914062 245.175781 -120.484375 239.210938 -110.363281 231.242188 C -96.769531 220.542969 -83.6875 209.199219 -70.164062 198.40625 C -42.621094 176.425781 -11.925781 162.777344 24.105469 164.910156 C 49.988281 166.445312 73.015625 175.621094 92.734375 192.71875 C 108.117188 206.058594 119.761719 222.164062 127.53125 240.886719 C 136.253906 261.894531 139.367188 283.761719 135.921875 306.433594 C 132.023438 332.078125 122.332031 355.671875 111.136719 378.839844 C 100.128906 401.628906 87.367188 423.566406 78.382812 447.367188 C 67.503906 476.179688 67.933594 504.261719 81.425781 532.105469 C 90.035156 549.871094 101.367188 565.914062 112.472656 582.101562 C 128.5625 605.558594 143.179688 629.769531 149.757812 657.832031 C 156.867188 688.179688 155.054688 718.042969 143.230469 747.03125 C 127.699219 785.109375 102.058594 814.488281 66.105469 834.445312 C 37.976562 850.054688 8.160156 854.078125 -23.175781 845.578125 C -43.375 840.097656 -61.164062 829.703125 -78.769531 818.941406 C -94.5 809.324219 -110.96875 802.839844 -129.84375 805.050781 C -145.523438 806.890625 -160.355469 811.785156 -174.886719 817.738281 C -207.796875 831.222656 -238.539062 848.917969 -269.300781 866.535156 C -294.175781 880.777344 -319.160156 894.835938 -345.867188 905.363281 C -376.519531 917.453125 -408.433594 923.347656 -441.351562 919.800781 C -479.46875 915.6875 -511.445312 898.914062 -536.878906 869.96875 C -560.289062 843.320312 -572.613281 812.398438 -571.867188 776.863281 C -571.351562 752.246094 -563.582031 729.347656 -551.480469 708.121094 C -533.871094 677.230469 -509.78125 651.644531 -483.09375 628.558594 C -464.710938 612.65625 -444.636719 598.859375 -425.019531 584.511719 C -417.492188 579 -410.386719 572.949219 -403.75 566.386719 C -389.035156 551.839844 -385.625 531.898438 -394.453125 511.960938 C -402.648438 493.453125 -416.765625 479.914062 -431.839844 467.042969 C -449.179688 452.234375 -469.027344 440.503906 -484.785156 423.761719 C -501.285156 406.230469 -509.933594 385.570312 -507.664062 361.441406 C -505.855469 342.242188 -497.441406 325.359375 -485.613281 310.238281 C -471.921875 292.730469 -455.089844 278.777344 -436.480469 266.765625 C -404.910156 246.390625 -369.9375 235.953125 -333.125 230.539062 C -308.339844 226.894531 -283.371094 225.910156 -260.136719 224.570312 " fill-opacity="1" fill-rule="nonzero"/></g></svg>